<mxfile host="app.diagrams.net" agent="Mozilla/5.0 (Macintosh; Intel Mac OS X 10_15_7) AppleWebKit/605.1.15 (KHTML, like Gecko) Version/18.2 Safari/605.1.15" version="26.0.9" pages="2">
  <diagram name="Page-1" id="uLC97kkECrQcUkzZvFg0">
    <mxGraphModel dx="1387" dy="1018" grid="1" gridSize="10" guides="1" tooltips="1" connect="1" arrows="1" fold="1" page="1" pageScale="1" pageWidth="827" pageHeight="1169" math="0" shadow="0">
      <root>
        <mxCell id="0" />
        <mxCell id="1" parent="0" />
        <mxCell id="zGbDaNfx95HRnWShP1by-7" style="rounded=0;orthogonalLoop=1;jettySize=auto;html=1;exitX=0.785;exitY=0.008;exitDx=0;exitDy=0;entryX=0.75;entryY=1;entryDx=0;entryDy=0;strokeWidth=2;exitPerimeter=0;" parent="1" source="zGbDaNfx95HRnWShP1by-1" target="e5545xmRH3Jb9SJGrrUb-4" edge="1">
          <mxGeometry relative="1" as="geometry" />
        </mxCell>
        <mxCell id="zGbDaNfx95HRnWShP1by-8" value="push content" style="edgeLabel;html=1;align=center;verticalAlign=middle;resizable=0;points=[];fontStyle=1" parent="zGbDaNfx95HRnWShP1by-7" vertex="1" connectable="0">
          <mxGeometry x="-0.037" y="-1" relative="1" as="geometry">
            <mxPoint as="offset" />
          </mxGeometry>
        </mxCell>
        <mxCell id="zGbDaNfx95HRnWShP1by-1" value="data storage layer" style="rounded=0;whiteSpace=wrap;html=1;labelPosition=center;verticalLabelPosition=top;align=left;verticalAlign=bottom;spacingLeft=2;spacingTop=-2;fillColor=#fff2cc;fillStyle=auto;dashed=1;fontSize=10;strokeColor=#d6b656;fontStyle=1;strokeWidth=3;dashPattern=1 1;" parent="1" vertex="1">
          <mxGeometry x="40" y="890" width="720" height="126" as="geometry" />
        </mxCell>
        <mxCell id="e5545xmRH3Jb9SJGrrUb-16" style="edgeStyle=orthogonalEdgeStyle;rounded=0;orthogonalLoop=1;jettySize=auto;html=1;exitX=0.5;exitY=1;exitDx=0;exitDy=0;entryX=0.5;entryY=0;entryDx=0;entryDy=0;strokeWidth=2;" parent="1" source="e5545xmRH3Jb9SJGrrUb-2" target="e5545xmRH3Jb9SJGrrUb-3" edge="1">
          <mxGeometry relative="1" as="geometry" />
        </mxCell>
        <mxCell id="e5545xmRH3Jb9SJGrrUb-17" value="render content" style="edgeLabel;html=1;align=center;verticalAlign=middle;resizable=0;points=[];fontStyle=1" parent="e5545xmRH3Jb9SJGrrUb-16" vertex="1" connectable="0">
          <mxGeometry x="0.0333" y="-2" relative="1" as="geometry">
            <mxPoint x="2" as="offset" />
          </mxGeometry>
        </mxCell>
        <mxCell id="e5545xmRH3Jb9SJGrrUb-29" style="rounded=0;orthogonalLoop=1;jettySize=auto;html=1;exitX=0.75;exitY=1;exitDx=0;exitDy=0;entryX=0.75;entryY=0;entryDx=0;entryDy=0;strokeWidth=2;" parent="1" source="e5545xmRH3Jb9SJGrrUb-2" target="e5545xmRH3Jb9SJGrrUb-3" edge="1">
          <mxGeometry relative="1" as="geometry" />
        </mxCell>
        <mxCell id="e5545xmRH3Jb9SJGrrUb-30" value="authenticate users" style="edgeLabel;html=1;align=center;verticalAlign=middle;resizable=0;points=[];fontStyle=1" parent="e5545xmRH3Jb9SJGrrUb-29" vertex="1" connectable="0">
          <mxGeometry x="0.05" y="-1" relative="1" as="geometry">
            <mxPoint as="offset" />
          </mxGeometry>
        </mxCell>
        <mxCell id="e5545xmRH3Jb9SJGrrUb-52" style="rounded=0;orthogonalLoop=1;jettySize=auto;html=1;exitX=0.25;exitY=1;exitDx=0;exitDy=0;entryX=0.25;entryY=0;entryDx=0;entryDy=0;strokeWidth=2;startArrow=classic;startFill=1;endArrow=none;" parent="1" source="e5545xmRH3Jb9SJGrrUb-2" target="e5545xmRH3Jb9SJGrrUb-3" edge="1">
          <mxGeometry relative="1" as="geometry">
            <Array as="points" />
          </mxGeometry>
        </mxCell>
        <mxCell id="e5545xmRH3Jb9SJGrrUb-53" value="distribute static content" style="edgeLabel;html=1;align=center;verticalAlign=middle;resizable=0;points=[];fontStyle=1" parent="e5545xmRH3Jb9SJGrrUb-52" vertex="1" connectable="0">
          <mxGeometry x="-0.04" y="-3" relative="1" as="geometry">
            <mxPoint as="offset" />
          </mxGeometry>
        </mxCell>
        <mxCell id="e5545xmRH3Jb9SJGrrUb-2" value="public network layer" style="rounded=0;whiteSpace=wrap;html=1;labelPosition=center;verticalLabelPosition=top;align=left;verticalAlign=bottom;spacingLeft=2;spacingTop=-2;fillColor=#dae8fc;fillStyle=solid;dashed=1;fontSize=10;strokeColor=#6c8ebf;gradientColor=none;fontStyle=1;strokeWidth=3;dashPattern=1 1;" parent="1" vertex="1">
          <mxGeometry x="120" y="156" width="560" height="114" as="geometry" />
        </mxCell>
        <mxCell id="e5545xmRH3Jb9SJGrrUb-20" style="rounded=0;orthogonalLoop=1;jettySize=auto;html=1;exitX=0.25;exitY=1;exitDx=0;exitDy=0;entryX=0.25;entryY=0;entryDx=0;entryDy=0;strokeWidth=2;" parent="1" source="e5545xmRH3Jb9SJGrrUb-3" target="e5545xmRH3Jb9SJGrrUb-4" edge="1">
          <mxGeometry relative="1" as="geometry" />
        </mxCell>
        <mxCell id="e5545xmRH3Jb9SJGrrUb-21" value="request content" style="edgeLabel;html=1;align=center;verticalAlign=middle;resizable=0;points=[];fontStyle=1" parent="e5545xmRH3Jb9SJGrrUb-20" vertex="1" connectable="0">
          <mxGeometry x="-0.0571" y="2" relative="1" as="geometry">
            <mxPoint as="offset" />
          </mxGeometry>
        </mxCell>
        <mxCell id="e5545xmRH3Jb9SJGrrUb-24" style="edgeStyle=orthogonalEdgeStyle;rounded=0;orthogonalLoop=1;jettySize=auto;html=1;exitX=0.5;exitY=1;exitDx=0;exitDy=0;strokeWidth=2;" parent="1" source="e5545xmRH3Jb9SJGrrUb-3" target="e5545xmRH3Jb9SJGrrUb-4" edge="1">
          <mxGeometry relative="1" as="geometry" />
        </mxCell>
        <mxCell id="e5545xmRH3Jb9SJGrrUb-25" value="fetch config" style="edgeLabel;html=1;align=center;verticalAlign=middle;resizable=0;points=[];fontStyle=1" parent="e5545xmRH3Jb9SJGrrUb-24" vertex="1" connectable="0">
          <mxGeometry x="-0.08" relative="1" as="geometry">
            <mxPoint as="offset" />
          </mxGeometry>
        </mxCell>
        <mxCell id="e5545xmRH3Jb9SJGrrUb-26" style="rounded=0;orthogonalLoop=1;jettySize=auto;html=1;exitX=0.75;exitY=1;exitDx=0;exitDy=0;entryX=0.75;entryY=0;entryDx=0;entryDy=0;strokeWidth=2;" parent="1" source="e5545xmRH3Jb9SJGrrUb-3" target="e5545xmRH3Jb9SJGrrUb-4" edge="1">
          <mxGeometry relative="1" as="geometry" />
        </mxCell>
        <mxCell id="e5545xmRH3Jb9SJGrrUb-27" value="collect tracking data" style="edgeLabel;html=1;align=center;verticalAlign=middle;resizable=0;points=[];fontStyle=1" parent="e5545xmRH3Jb9SJGrrUb-26" vertex="1" connectable="0">
          <mxGeometry x="-0.1586" y="-3" relative="1" as="geometry">
            <mxPoint as="offset" />
          </mxGeometry>
        </mxCell>
        <mxCell id="e5545xmRH3Jb9SJGrrUb-3" value="presentation layer" style="rounded=0;whiteSpace=wrap;html=1;labelPosition=center;verticalLabelPosition=top;align=left;verticalAlign=bottom;spacingLeft=2;spacingTop=-2;fillColor=#d5e8d4;fillStyle=auto;dashed=1;fontSize=10;strokeColor=#82b366;fontStyle=1;strokeWidth=3;dashPattern=1 1;" parent="1" vertex="1">
          <mxGeometry x="80" y="340" width="640" height="210" as="geometry" />
        </mxCell>
        <mxCell id="zGbDaNfx95HRnWShP1by-2" style="edgeStyle=orthogonalEdgeStyle;rounded=0;orthogonalLoop=1;jettySize=auto;html=1;exitX=0.5;exitY=1;exitDx=0;exitDy=0;strokeWidth=2;" parent="1" source="e5545xmRH3Jb9SJGrrUb-4" target="zGbDaNfx95HRnWShP1by-1" edge="1">
          <mxGeometry relative="1" as="geometry" />
        </mxCell>
        <mxCell id="zGbDaNfx95HRnWShP1by-3" value="&lt;b&gt;request data&lt;/b&gt;" style="edgeLabel;html=1;align=center;verticalAlign=middle;resizable=0;points=[];" parent="zGbDaNfx95HRnWShP1by-2" vertex="1" connectable="0">
          <mxGeometry x="0.0833" y="1" relative="1" as="geometry">
            <mxPoint x="-1" y="-1" as="offset" />
          </mxGeometry>
        </mxCell>
        <mxCell id="e5545xmRH3Jb9SJGrrUb-4" value="data access layer" style="rounded=0;whiteSpace=wrap;html=1;labelPosition=center;verticalLabelPosition=top;align=left;verticalAlign=bottom;spacingLeft=2;spacingTop=-2;fillColor=#f8cecc;fillStyle=auto;dashed=1;fontSize=10;strokeColor=#b85450;fontStyle=1;strokeWidth=3;dashPattern=1 1;" parent="1" vertex="1">
          <mxGeometry x="40" y="622" width="720" height="198" as="geometry" />
        </mxCell>
        <mxCell id="e5545xmRH3Jb9SJGrrUb-8" value="SSO Adapter" style="rounded=0;whiteSpace=wrap;html=1;sketch=1;curveFitting=1;jiggle=2;" parent="1" vertex="1">
          <mxGeometry x="280" y="380" width="106" height="50" as="geometry" />
        </mxCell>
        <mxCell id="e5545xmRH3Jb9SJGrrUb-9" value="UserService" style="rounded=0;whiteSpace=wrap;html=1;strokeWidth=1;sketch=1;curveFitting=1;jiggle=2;" parent="1" vertex="1">
          <mxGeometry x="120" y="650" width="106" height="50" as="geometry" />
        </mxCell>
        <mxCell id="e5545xmRH3Jb9SJGrrUb-10" value="Tracking-Service" style="rounded=0;whiteSpace=wrap;html=1;sketch=1;curveFitting=1;jiggle=2;" parent="1" vertex="1">
          <mxGeometry x="550" y="380" width="106" height="50" as="geometry" />
        </mxCell>
        <mxCell id="e5545xmRH3Jb9SJGrrUb-18" style="rounded=0;orthogonalLoop=1;jettySize=auto;html=1;exitX=0.5;exitY=1;exitDx=0;exitDy=0;entryX=0.5;entryY=0;entryDx=0;entryDy=0;strokeWidth=2;" parent="1" source="e5545xmRH3Jb9SJGrrUb-11" target="e5545xmRH3Jb9SJGrrUb-2" edge="1">
          <mxGeometry relative="1" as="geometry" />
        </mxCell>
        <mxCell id="e5545xmRH3Jb9SJGrrUb-32" value="page requests" style="edgeLabel;html=1;align=center;verticalAlign=middle;resizable=0;points=[];fontStyle=1" parent="e5545xmRH3Jb9SJGrrUb-18" vertex="1" connectable="0">
          <mxGeometry x="-0.086" y="2" relative="1" as="geometry">
            <mxPoint as="offset" />
          </mxGeometry>
        </mxCell>
        <mxCell id="e5545xmRH3Jb9SJGrrUb-11" value="Web browsers&lt;div&gt;iOS app&amp;nbsp;&lt;/div&gt;&lt;div&gt;Android app&lt;/div&gt;" style="rounded=0;whiteSpace=wrap;html=1;sketch=1;curveFitting=1;jiggle=2;" parent="1" vertex="1">
          <mxGeometry x="347" y="30" width="106" height="50" as="geometry" />
        </mxCell>
        <mxCell id="e5545xmRH3Jb9SJGrrUb-12" value="AWS Cloud Front" style="rounded=0;whiteSpace=wrap;html=1;sketch=1;curveFitting=1;jiggle=2;" parent="1" vertex="1">
          <mxGeometry x="550" y="189" width="106" height="50" as="geometry" />
        </mxCell>
        <mxCell id="e5545xmRH3Jb9SJGrrUb-13" value="Payment Service" style="rounded=0;whiteSpace=wrap;html=1;sketch=1;curveFitting=1;jiggle=2;" parent="1" vertex="1">
          <mxGeometry x="413.5" y="380" width="106" height="50" as="geometry" />
        </mxCell>
        <mxCell id="e5545xmRH3Jb9SJGrrUb-31" value="CDN" style="rounded=0;whiteSpace=wrap;html=1;sketch=1;curveFitting=1;jiggle=2;" parent="1" vertex="1">
          <mxGeometry x="290" y="189" width="106" height="50" as="geometry" />
        </mxCell>
        <mxCell id="e5545xmRH3Jb9SJGrrUb-33" value="Content Service" style="rounded=0;whiteSpace=wrap;html=1;sketch=1;curveFitting=1;jiggle=2;" parent="1" vertex="1">
          <mxGeometry x="550" y="460" width="106" height="50" as="geometry" />
        </mxCell>
        <mxCell id="e5545xmRH3Jb9SJGrrUb-34" value="Search&lt;span style=&quot;color: rgba(0, 0, 0, 0); font-family: monospace; font-size: 0px; text-align: start; text-wrap: nowrap;&quot;&gt;%3CmxGraphModel%3E%3Croot%3E%3CmxCell%20id%3D%220%22%2F%3E%3CmxCell%20id%3D%221%22%20parent%3D%220%22%2F%3E%3CmxCell%20id%3D%222%22%20value%3D%22Content%20Service%22%20style%3D%22rounded%3D0%3BwhiteSpace%3Dwrap%3Bhtml%3D1%3B%22%20vertex%3D%221%22%20parent%3D%221%22%3E%3CmxGeometry%20x%3D%22550%22%20y%3D%22470%22%20width%3D%22106%22%20height%3D%2250%22%20as%3D%22geometry%22%2F%3E%3C%2FmxCell%3E%3C%2Froot%3E%3C%2FmxGraphModel%3E&lt;/span&gt;&amp;nbsp;Service" style="rounded=0;whiteSpace=wrap;html=1;sketch=1;curveFitting=1;jiggle=2;" parent="1" vertex="1">
          <mxGeometry x="280" y="460" width="106" height="50" as="geometry" />
        </mxCell>
        <mxCell id="e5545xmRH3Jb9SJGrrUb-35" value="SLM Common" style="rounded=0;whiteSpace=wrap;html=1;sketch=1;curveFitting=1;jiggle=2;" parent="1" vertex="1">
          <mxGeometry x="150" y="460" width="106" height="50" as="geometry" />
        </mxCell>
        <mxCell id="e5545xmRH3Jb9SJGrrUb-36" value="Common Infra" style="rounded=0;whiteSpace=wrap;html=1;sketch=1;curveFitting=1;jiggle=2;" parent="1" vertex="1">
          <mxGeometry x="330" y="924" width="106" height="50" as="geometry" />
        </mxCell>
        <mxCell id="e5545xmRH3Jb9SJGrrUb-37" value="Adapter" style="rounded=0;whiteSpace=wrap;html=1;sketch=1;curveFitting=1;jiggle=2;" parent="1" vertex="1">
          <mxGeometry x="150" y="380" width="106" height="50" as="geometry" />
        </mxCell>
        <mxCell id="e5545xmRH3Jb9SJGrrUb-38" value="Common Artifacts&lt;span style=&quot;color: rgba(0, 0, 0, 0); font-family: monospace; font-size: 0px; text-align: start; text-wrap: nowrap;&quot;&gt;%3CmxGraphModel%3E%3Croot%3E%3CmxCell%20id%3D%220%22%2F%3E%3CmxCell%20id%3D%221%22%20parent%3D%220%22%2F%3E%3CmxCell%20id%3D%222%22%20value%3D%22Common%20Infra%22%20style%3D%22rounded%3D0%3BwhiteSpace%3Dwrap%3Bhtml%3D1%3B%22%20vertex%3D%221%22%20parent%3D%221%22%3E%3CmxGeometry%20x%3D%22150%22%20y%3D%22470%22%20width%3D%22106%22%20height%3D%2250%22%20as%3D%22geometry%22%2F%3E%3C%2FmxCell%3E%3C%2Froot%3E%3C%2FmxGraphModel%3E&lt;/span&gt;" style="rounded=0;whiteSpace=wrap;html=1;sketch=1;curveFitting=1;jiggle=2;" parent="1" vertex="1">
          <mxGeometry x="263" y="650" width="106" height="50" as="geometry" />
        </mxCell>
        <mxCell id="e5545xmRH3Jb9SJGrrUb-39" value="Tooling" style="rounded=0;whiteSpace=wrap;html=1;sketch=1;curveFitting=1;jiggle=2;" parent="1" vertex="1">
          <mxGeometry x="405" y="650" width="106" height="50" as="geometry" />
        </mxCell>
        <mxCell id="e5545xmRH3Jb9SJGrrUb-40" value="Dashboard Plugins" style="rounded=0;whiteSpace=wrap;html=1;sketch=1;curveFitting=1;jiggle=2;" parent="1" vertex="1">
          <mxGeometry x="548" y="650" width="106" height="50" as="geometry" />
        </mxCell>
        <mxCell id="e5545xmRH3Jb9SJGrrUb-41" value="Renovate" style="rounded=0;whiteSpace=wrap;html=1;sketch=1;curveFitting=1;jiggle=2;" parent="1" vertex="1">
          <mxGeometry x="122" y="730" width="106" height="50" as="geometry" />
        </mxCell>
        <mxCell id="e5545xmRH3Jb9SJGrrUb-42" value="ElastiCache" style="rounded=0;whiteSpace=wrap;html=1;sketch=1;curveFitting=1;jiggle=2;" parent="1" vertex="1">
          <mxGeometry x="263" y="730" width="106" height="50" as="geometry" />
        </mxCell>
        <mxCell id="e5545xmRH3Jb9SJGrrUb-43" value="CMS Sitebuilder" style="rounded=0;whiteSpace=wrap;html=1;sketch=1;curveFitting=1;jiggle=2;" parent="1" vertex="1">
          <mxGeometry x="170" y="924" width="106" height="50" as="geometry" />
        </mxCell>
        <mxCell id="e5545xmRH3Jb9SJGrrUb-44" value="React-Frontend" style="rounded=0;whiteSpace=wrap;html=1;sketch=1;curveFitting=1;jiggle=2;" parent="1" vertex="1">
          <mxGeometry x="414" y="460" width="106" height="50" as="geometry" />
        </mxCell>
        <mxCell id="e5545xmRH3Jb9SJGrrUb-45" value="Iterable Bridge" style="rounded=0;whiteSpace=wrap;html=1;sketch=1;curveFitting=1;jiggle=2;" parent="1" vertex="1">
          <mxGeometry x="548" y="730" width="106" height="50" as="geometry" />
        </mxCell>
        <mxCell id="e5545xmRH3Jb9SJGrrUb-46" value="AWS Backup" style="rounded=0;whiteSpace=wrap;html=1;sketch=1;curveFitting=1;jiggle=2;" parent="1" vertex="1">
          <mxGeometry x="490" y="924" width="106" height="50" as="geometry" />
        </mxCell>
        <mxCell id="e5545xmRH3Jb9SJGrrUb-47" value="Event Service" style="rounded=0;whiteSpace=wrap;html=1;sketch=1;curveFitting=1;jiggle=2;" parent="1" vertex="1">
          <mxGeometry x="405" y="730" width="106" height="50" as="geometry" />
        </mxCell>
        <mxCell id="e5545xmRH3Jb9SJGrrUb-48" value="DNS" style="rounded=0;whiteSpace=wrap;html=1;sketch=1;curveFitting=1;jiggle=2;" parent="1" vertex="1">
          <mxGeometry x="160" y="189" width="106" height="50" as="geometry" />
        </mxCell>
        <mxCell id="e5545xmRH3Jb9SJGrrUb-49" value="AWS API Gateway" style="rounded=0;whiteSpace=wrap;html=1;sketch=1;curveFitting=1;jiggle=2;" parent="1" vertex="1">
          <mxGeometry x="420" y="189" width="106" height="50" as="geometry" />
        </mxCell>
        <mxCell id="LVvOtSNeGutr6rOgMHUB-1" value="&lt;h1 style=&quot;margin-top: 0px;&quot;&gt;L2 Container Diagram&lt;/h1&gt;&lt;p&gt;Container diagram according to c4model.com, describing Stampen&#39;s CMS platform.&lt;/p&gt;" style="text;html=1;whiteSpace=wrap;overflow=hidden;rounded=0;" parent="1" vertex="1">
          <mxGeometry x="20" width="190" height="120" as="geometry" />
        </mxCell>
        <mxCell id="zGbDaNfx95HRnWShP1by-4" style="rounded=0;orthogonalLoop=1;jettySize=auto;html=1;exitX=0.289;exitY=1;exitDx=0;exitDy=0;entryX=0.25;entryY=0;entryDx=0;entryDy=0;strokeWidth=2;exitPerimeter=0;" parent="1" source="e5545xmRH3Jb9SJGrrUb-4" target="zGbDaNfx95HRnWShP1by-1" edge="1">
          <mxGeometry relative="1" as="geometry">
            <Array as="points" />
          </mxGeometry>
        </mxCell>
        <mxCell id="BU4JU-sKp2h5h3BOpqae-1" value="get components" style="edgeLabel;html=1;align=center;verticalAlign=middle;resizable=0;points=[];fontStyle=1" parent="zGbDaNfx95HRnWShP1by-4" vertex="1" connectable="0">
          <mxGeometry x="0.0108" y="2" relative="1" as="geometry">
            <mxPoint as="offset" />
          </mxGeometry>
        </mxCell>
      </root>
    </mxGraphModel>
  </diagram>
  <diagram id="3jEL67YlDFldDbrJEn3b" name="Page-2">
    <mxGraphModel dx="2214" dy="1018" grid="1" gridSize="10" guides="1" tooltips="1" connect="1" arrows="1" fold="1" page="1" pageScale="1" pageWidth="827" pageHeight="1169" math="0" shadow="0">
      <root>
        <mxCell id="0" />
        <mxCell id="1" parent="0" />
        <mxCell id="3_m9zHuzIaBdyqTVlUwn-28" style="edgeStyle=orthogonalEdgeStyle;rounded=0;orthogonalLoop=1;jettySize=auto;html=1;exitX=0.75;exitY=1;exitDx=0;exitDy=0;" edge="1" parent="1" source="3_m9zHuzIaBdyqTVlUwn-16" target="3_m9zHuzIaBdyqTVlUwn-25">
          <mxGeometry relative="1" as="geometry" />
        </mxCell>
        <mxCell id="3_m9zHuzIaBdyqTVlUwn-16" value="" style="rounded=0;whiteSpace=wrap;html=1;" vertex="1" parent="1">
          <mxGeometry x="265" y="90" width="270" height="70" as="geometry" />
        </mxCell>
        <mxCell id="3_m9zHuzIaBdyqTVlUwn-6" value="AWS Cloud" style="ellipse;shape=cloud;whiteSpace=wrap;html=1;verticalAlign=bottom;" vertex="1" parent="1">
          <mxGeometry x="100" y="150" width="610" height="680" as="geometry" />
        </mxCell>
        <mxCell id="3_m9zHuzIaBdyqTVlUwn-7" value="Third-party SaaS solutions" style="ellipse;shape=cloud;whiteSpace=wrap;html=1;verticalAlign=bottom;spacingBottom=0;" vertex="1" parent="1">
          <mxGeometry x="-270" y="200" width="420" height="560" as="geometry" />
        </mxCell>
        <mxCell id="Prlv7t0igINGpuoFBdcA-1" value="CMS Platform" style="rounded=1;whiteSpace=wrap;html=1;labelPosition=center;verticalLabelPosition=middle;align=center;verticalAlign=top;" vertex="1" parent="1">
          <mxGeometry x="210" y="430" width="380" height="250" as="geometry" />
        </mxCell>
        <mxCell id="Prlv7t0igINGpuoFBdcA-2" value="Produktarea&lt;div&gt;Köpupplevelsen&lt;br&gt;&lt;/div&gt;" style="rounded=1;whiteSpace=wrap;html=1;verticalAlign=top;" vertex="1" parent="1">
          <mxGeometry x="229" y="465" width="110" height="185" as="geometry" />
        </mxCell>
        <mxCell id="Prlv7t0igINGpuoFBdcA-3" value="Produktarea&amp;nbsp;&lt;div&gt;Innehållsupplevelse&lt;/div&gt;" style="rounded=1;whiteSpace=wrap;html=1;verticalAlign=top;" vertex="1" parent="1">
          <mxGeometry x="350" y="465" width="110" height="185" as="geometry" />
        </mxCell>
        <mxCell id="Prlv7t0igINGpuoFBdcA-4" value="Produktarea&amp;nbsp;&lt;div&gt;Retention &amp;amp; anti-churn&lt;/div&gt;" style="rounded=1;whiteSpace=wrap;html=1;verticalAlign=top;" vertex="1" parent="1">
          <mxGeometry x="470" y="465" width="110" height="185" as="geometry" />
        </mxCell>
        <mxCell id="3_m9zHuzIaBdyqTVlUwn-3" style="edgeStyle=orthogonalEdgeStyle;rounded=0;orthogonalLoop=1;jettySize=auto;html=1;exitX=0;exitY=0.5;exitDx=0;exitDy=0;" edge="1" parent="1" source="3_m9zHuzIaBdyqTVlUwn-1" target="3_m9zHuzIaBdyqTVlUwn-2">
          <mxGeometry relative="1" as="geometry" />
        </mxCell>
        <mxCell id="3_m9zHuzIaBdyqTVlUwn-10" style="edgeStyle=orthogonalEdgeStyle;rounded=0;orthogonalLoop=1;jettySize=auto;html=1;exitX=0.5;exitY=1;exitDx=0;exitDy=0;entryX=0.5;entryY=0;entryDx=0;entryDy=0;" edge="1" parent="1" source="3_m9zHuzIaBdyqTVlUwn-1" target="Prlv7t0igINGpuoFBdcA-1">
          <mxGeometry relative="1" as="geometry" />
        </mxCell>
        <mxCell id="3_m9zHuzIaBdyqTVlUwn-29" style="rounded=0;orthogonalLoop=1;jettySize=auto;html=1;exitX=0.5;exitY=0;exitDx=0;exitDy=0;entryX=0.5;entryY=1;entryDx=0;entryDy=0;" edge="1" parent="1" source="3_m9zHuzIaBdyqTVlUwn-1" target="3_m9zHuzIaBdyqTVlUwn-24">
          <mxGeometry relative="1" as="geometry" />
        </mxCell>
        <mxCell id="3_m9zHuzIaBdyqTVlUwn-1" value="API Gateway" style="rounded=1;whiteSpace=wrap;html=1;" vertex="1" parent="1">
          <mxGeometry x="210" y="340" width="380" height="60" as="geometry" />
        </mxCell>
        <mxCell id="3_m9zHuzIaBdyqTVlUwn-2" value="Identity Provider" style="ellipse;whiteSpace=wrap;html=1;" vertex="1" parent="1">
          <mxGeometry x="-130" y="330" width="120" height="80" as="geometry" />
        </mxCell>
        <mxCell id="3_m9zHuzIaBdyqTVlUwn-4" value="Aria" style="ellipse;whiteSpace=wrap;html=1;" vertex="1" parent="1">
          <mxGeometry x="-210" y="420" width="120" height="80" as="geometry" />
        </mxCell>
        <mxCell id="3_m9zHuzIaBdyqTVlUwn-5" value="Iterable" style="ellipse;whiteSpace=wrap;html=1;" vertex="1" parent="1">
          <mxGeometry x="-60" y="420" width="120" height="80" as="geometry" />
        </mxCell>
        <mxCell id="3_m9zHuzIaBdyqTVlUwn-11" value="" style="html=1;verticalLabelPosition=bottom;align=center;labelBackgroundColor=#ffffff;verticalAlign=top;strokeWidth=2;strokeColor=#0080F0;shadow=0;dashed=0;shape=mxgraph.ios7.icons.smartphone;" vertex="1" parent="1">
          <mxGeometry x="310" y="110" width="18" height="40" as="geometry" />
        </mxCell>
        <mxCell id="3_m9zHuzIaBdyqTVlUwn-13" value="" style="verticalLabelPosition=bottom;html=1;verticalAlign=top;align=center;strokeColor=none;fillColor=#00BEF2;shape=mxgraph.azure.user;" vertex="1" parent="1">
          <mxGeometry x="376.25" y="100" width="47.5" height="50" as="geometry" />
        </mxCell>
        <mxCell id="3_m9zHuzIaBdyqTVlUwn-15" value="" style="verticalLabelPosition=bottom;html=1;verticalAlign=top;align=center;strokeColor=none;fillColor=#00BEF2;shape=mxgraph.azure.computer;pointerEvents=1;" vertex="1" parent="1">
          <mxGeometry x="460" y="105" width="50" height="45" as="geometry" />
        </mxCell>
        <mxCell id="3_m9zHuzIaBdyqTVlUwn-17" style="rounded=0;orthogonalLoop=1;jettySize=auto;html=1;exitX=0.5;exitY=1;exitDx=0;exitDy=0;" edge="1" parent="1" source="3_m9zHuzIaBdyqTVlUwn-25" target="3_m9zHuzIaBdyqTVlUwn-1">
          <mxGeometry relative="1" as="geometry" />
        </mxCell>
        <mxCell id="3_m9zHuzIaBdyqTVlUwn-18" value="Service 1" style="ellipse;whiteSpace=wrap;html=1;" vertex="1" parent="1">
          <mxGeometry x="254" y="510" width="60" height="40" as="geometry" />
        </mxCell>
        <mxCell id="3_m9zHuzIaBdyqTVlUwn-19" value="Service 2" style="ellipse;whiteSpace=wrap;html=1;" vertex="1" parent="1">
          <mxGeometry x="254" y="554" width="60" height="40" as="geometry" />
        </mxCell>
        <mxCell id="3_m9zHuzIaBdyqTVlUwn-20" value="Service 3" style="ellipse;whiteSpace=wrap;html=1;" vertex="1" parent="1">
          <mxGeometry x="254" y="599" width="60" height="40" as="geometry" />
        </mxCell>
        <mxCell id="3_m9zHuzIaBdyqTVlUwn-21" value="Service 1" style="ellipse;whiteSpace=wrap;html=1;" vertex="1" parent="1">
          <mxGeometry x="375" y="509.5" width="60" height="40" as="geometry" />
        </mxCell>
        <mxCell id="3_m9zHuzIaBdyqTVlUwn-22" value="Service 2" style="ellipse;whiteSpace=wrap;html=1;" vertex="1" parent="1">
          <mxGeometry x="375" y="553.5" width="60" height="40" as="geometry" />
        </mxCell>
        <mxCell id="3_m9zHuzIaBdyqTVlUwn-23" value="Service 3" style="ellipse;whiteSpace=wrap;html=1;" vertex="1" parent="1">
          <mxGeometry x="375" y="598.5" width="60" height="40" as="geometry" />
        </mxCell>
        <mxCell id="3_m9zHuzIaBdyqTVlUwn-26" style="edgeStyle=orthogonalEdgeStyle;rounded=0;orthogonalLoop=1;jettySize=auto;html=1;entryX=0.25;entryY=1;entryDx=0;entryDy=0;" edge="1" parent="1" source="3_m9zHuzIaBdyqTVlUwn-24" target="3_m9zHuzIaBdyqTVlUwn-16">
          <mxGeometry relative="1" as="geometry" />
        </mxCell>
        <mxCell id="3_m9zHuzIaBdyqTVlUwn-24" value="CDN" style="ellipse;whiteSpace=wrap;html=1;" vertex="1" parent="1">
          <mxGeometry x="273" y="190" width="120" height="80" as="geometry" />
        </mxCell>
        <mxCell id="3_m9zHuzIaBdyqTVlUwn-25" value="Load Balancer" style="ellipse;whiteSpace=wrap;html=1;" vertex="1" parent="1">
          <mxGeometry x="407" y="190" width="120" height="80" as="geometry" />
        </mxCell>
        <mxCell id="3_m9zHuzIaBdyqTVlUwn-30" value="" style="shape=cylinder3;whiteSpace=wrap;html=1;boundedLbl=1;backgroundOutline=1;size=15;" vertex="1" parent="1">
          <mxGeometry x="450" y="700" width="60" height="50" as="geometry" />
        </mxCell>
        <mxCell id="3_m9zHuzIaBdyqTVlUwn-31" value="" style="shape=cylinder3;whiteSpace=wrap;html=1;boundedLbl=1;backgroundOutline=1;size=15;" vertex="1" parent="1">
          <mxGeometry x="375" y="700" width="60" height="50" as="geometry" />
        </mxCell>
        <mxCell id="3_m9zHuzIaBdyqTVlUwn-32" value="" style="shape=cylinder3;whiteSpace=wrap;html=1;boundedLbl=1;backgroundOutline=1;size=15;" vertex="1" parent="1">
          <mxGeometry x="303" y="700" width="60" height="50" as="geometry" />
        </mxCell>
        <mxCell id="3_m9zHuzIaBdyqTVlUwn-33" style="edgeStyle=orthogonalEdgeStyle;rounded=0;orthogonalLoop=1;jettySize=auto;html=1;exitX=0.5;exitY=1;exitDx=0;exitDy=0;entryX=0.5;entryY=0;entryDx=0;entryDy=0;entryPerimeter=0;" edge="1" parent="1" source="Prlv7t0igINGpuoFBdcA-1" target="3_m9zHuzIaBdyqTVlUwn-31">
          <mxGeometry relative="1" as="geometry" />
        </mxCell>
      </root>
    </mxGraphModel>
  </diagram>
</mxfile>
